<svg xmlns="http://www.w3.org/2000/svg" xmlns:xlink="http://www.w3.org/1999/xlink" width="1920" zoomAndPan="magnify" viewBox="0 0 1440 225" height="300" preserveAspectRatio="xMidYMid meet" version="1.0"><defs><g/></defs><g fill="#ffde59" fill-opacity="1"><g transform="translate(60.817988, 177.750003)"><g><path d="M 16.4375 0 L 16.4375 -131.171875 L 71.875 -131.171875 C 77.53125 -131.171875 82.695312 -130 87.375 -127.65625 C 92.0625 -125.320312 96.160156 -122.148438 99.671875 -118.140625 C 103.179688 -114.140625 105.890625 -109.707031 107.796875 -104.84375 C 109.710938 -99.976562 110.671875 -95.019531 110.671875 -89.96875 C 110.671875 -83.6875 109.46875 -77.773438 107.0625 -72.234375 C 104.65625 -66.691406 101.265625 -62.007812 96.890625 -58.1875 C 92.523438 -54.375 87.382812 -51.851562 81.46875 -50.625 L 113.625 0 L 99.03125 0 L 68.171875 -48.40625 L 29.375 -48.40625 L 29.375 0 Z M 29.375 -59.859375 L 72.234375 -59.859375 C 77.410156 -59.859375 81.90625 -61.273438 85.71875 -64.109375 C 89.539062 -66.941406 92.5 -70.664062 94.59375 -75.28125 C 96.6875 -79.90625 97.734375 -84.800781 97.734375 -89.96875 C 97.734375 -95.269531 96.53125 -100.164062 94.125 -104.65625 C 91.726562 -109.15625 88.523438 -112.789062 84.515625 -115.5625 C 80.515625 -118.332031 76.050781 -119.71875 71.125 -119.71875 L 29.375 -119.71875 Z M 29.375 -59.859375 "/></g></g></g><g fill="#ffde59" fill-opacity="1"><g transform="translate(181.457181, 177.750003)"><g><path d="M 6.09375 -27.71875 C 6.09375 -33.75 7.816406 -38.945312 11.265625 -43.3125 C 14.710938 -47.6875 19.484375 -51.078125 25.578125 -53.484375 C 31.679688 -55.890625 38.734375 -57.09375 46.734375 -57.09375 C 51.421875 -57.09375 56.285156 -56.722656 61.328125 -55.984375 C 66.378906 -55.242188 70.878906 -54.132812 74.828125 -52.65625 L 74.828125 -60.78125 C 74.828125 -68.90625 72.421875 -75.367188 67.609375 -80.171875 C 62.804688 -84.984375 56.160156 -87.390625 47.671875 -87.390625 C 42.492188 -87.390625 37.410156 -86.429688 32.421875 -84.515625 C 27.429688 -82.609375 22.226562 -79.804688 16.8125 -76.109375 L 12.015625 -84.984375 C 18.296875 -89.296875 24.453125 -92.53125 30.484375 -94.6875 C 36.515625 -96.84375 42.671875 -97.921875 48.953125 -97.921875 C 60.773438 -97.921875 70.132812 -94.53125 77.03125 -87.75 C 83.9375 -80.976562 87.390625 -71.617188 87.390625 -59.671875 L 87.390625 -15.15625 C 87.390625 -13.425781 87.757812 -12.160156 88.5 -11.359375 C 89.238281 -10.554688 90.40625 -10.09375 92 -9.96875 L 92 0 C 90.644531 0.125 89.472656 0.242188 88.484375 0.359375 C 87.503906 0.484375 86.769531 0.488281 86.28125 0.375 C 83.195312 0.25 80.851562 -0.734375 79.25 -2.578125 C 77.65625 -4.429688 76.796875 -6.40625 76.671875 -8.5 L 76.484375 -15.515625 C 72.171875 -9.972656 66.566406 -5.691406 59.671875 -2.671875 C 52.773438 0.335938 45.753906 1.84375 38.609375 1.84375 C 32.453125 1.84375 26.878906 0.519531 21.890625 -2.125 C 16.898438 -4.769531 13.019531 -8.335938 10.25 -12.828125 C 7.476562 -17.328125 6.09375 -22.289062 6.09375 -27.71875 Z M 70.578125 -20.328125 C 71.929688 -22.046875 72.976562 -23.707031 73.71875 -25.3125 C 74.457031 -26.914062 74.828125 -28.332031 74.828125 -29.5625 L 74.828125 -43.59375 C 70.640625 -45.195312 66.296875 -46.429688 61.796875 -47.296875 C 57.304688 -48.160156 52.78125 -48.59375 48.21875 -48.59375 C 39.226562 -48.59375 31.960938 -46.804688 26.421875 -43.234375 C 20.878906 -39.660156 18.109375 -34.796875 18.109375 -28.640625 C 18.109375 -25.066406 19.03125 -21.707031 20.875 -18.5625 C 22.71875 -15.425781 25.425781 -12.84375 29 -10.8125 C 32.570312 -8.78125 36.757812 -7.765625 41.5625 -7.765625 C 47.601562 -7.765625 53.238281 -8.929688 58.46875 -11.265625 C 63.707031 -13.609375 67.742188 -16.628906 70.578125 -20.328125 Z M 70.578125 -20.328125 "/></g></g></g><g fill="#ffde59" fill-opacity="1"><g transform="translate(282.143785, 177.750003)"><g><path d="M 45.453125 1.84375 C 37.566406 1.84375 30.234375 0.550781 23.453125 -2.03125 C 16.679688 -4.613281 10.832031 -8.554688 5.90625 -13.859375 L 11.078125 -22.71875 C 16.503906 -17.675781 21.957031 -14.015625 27.4375 -11.734375 C 32.914062 -9.453125 38.734375 -8.3125 44.890625 -8.3125 C 52.398438 -8.3125 58.492188 -9.816406 63.171875 -12.828125 C 67.859375 -15.847656 70.203125 -20.191406 70.203125 -25.859375 C 70.203125 -29.679688 69.0625 -32.609375 66.78125 -34.640625 C 64.507812 -36.671875 61.25 -38.332031 57 -39.625 C 52.75 -40.914062 47.664062 -42.300781 41.75 -43.78125 C 35.101562 -45.632812 29.53125 -47.578125 25.03125 -49.609375 C 20.539062 -51.640625 17.15625 -54.222656 14.875 -57.359375 C 12.59375 -60.503906 11.453125 -64.601562 11.453125 -69.65625 C 11.453125 -75.9375 13.019531 -81.140625 16.15625 -85.265625 C 19.300781 -89.390625 23.613281 -92.53125 29.09375 -94.6875 C 34.570312 -96.84375 40.703125 -97.921875 47.484375 -97.921875 C 54.867188 -97.921875 61.394531 -96.75 67.0625 -94.40625 C 72.726562 -92.0625 77.347656 -88.796875 80.921875 -84.609375 L 74.828125 -76.109375 C 71.378906 -80.054688 67.28125 -82.984375 62.53125 -84.890625 C 57.789062 -86.796875 52.523438 -87.75 46.734375 -87.75 C 42.796875 -87.75 39.039062 -87.222656 35.46875 -86.171875 C 31.894531 -85.128906 28.96875 -83.40625 26.6875 -81 C 24.414062 -78.601562 23.28125 -75.3125 23.28125 -71.125 C 23.28125 -67.675781 24.140625 -65 25.859375 -63.09375 C 27.585938 -61.1875 30.175781 -59.582031 33.625 -58.28125 C 37.070312 -56.988281 41.320312 -55.601562 46.375 -54.125 C 53.632812 -52.15625 59.972656 -50.15625 65.390625 -48.125 C 70.816406 -46.09375 75.007812 -43.472656 77.96875 -40.265625 C 80.925781 -37.066406 82.40625 -32.570312 82.40625 -26.78125 C 82.40625 -17.789062 79.015625 -10.769531 72.234375 -5.71875 C 65.460938 -0.675781 56.535156 1.84375 45.453125 1.84375 Z M 45.453125 1.84375 "/></g></g></g><g fill="#ffde59" fill-opacity="1"><g transform="translate(371.376157, 177.750003)"><g><path d="M 157.03125 0 L 144.46875 0 L 144.46875 -53.765625 C 144.46875 -64.972656 142.679688 -73.222656 139.109375 -78.515625 C 135.546875 -83.816406 130.253906 -86.46875 123.234375 -86.46875 C 115.960938 -86.46875 109.460938 -83.878906 103.734375 -78.703125 C 98.003906 -73.523438 93.972656 -66.875 91.640625 -58.75 L 91.640625 0 L 79.078125 0 L 79.078125 -53.765625 C 79.078125 -65.097656 77.351562 -73.378906 73.90625 -78.609375 C 70.457031 -83.847656 65.160156 -86.46875 58.015625 -86.46875 C 50.867188 -86.46875 44.398438 -83.941406 38.609375 -78.890625 C 32.816406 -73.835938 28.753906 -67.1875 26.421875 -58.9375 L 26.421875 0 L 13.859375 0 L 13.859375 -96.25 L 25.3125 -96.25 L 25.3125 -74.453125 C 29.375 -81.960938 34.578125 -87.75 40.921875 -91.8125 C 47.265625 -95.882812 54.316406 -97.921875 62.078125 -97.921875 C 70.078125 -97.921875 76.539062 -95.640625 81.46875 -91.078125 C 86.394531 -86.523438 89.414062 -80.550781 90.53125 -73.15625 C 94.957031 -81.289062 100.28125 -87.453125 106.5 -91.640625 C 112.726562 -95.828125 119.78125 -97.921875 127.65625 -97.921875 C 133.082031 -97.921875 137.671875 -96.929688 141.421875 -94.953125 C 145.179688 -92.984375 148.195312 -90.179688 150.46875 -86.546875 C 152.75 -82.921875 154.410156 -78.550781 155.453125 -73.4375 C 156.503906 -68.320312 157.03125 -62.625 157.03125 -56.34375 Z M 157.03125 0 "/></g></g></g><g fill="#ffde59" fill-opacity="1"><g transform="translate(541.157812, 177.750003)"><g><path d="M 12.9375 -39.71875 L 12.9375 -96.25 L 25.5 -96.25 L 25.5 -41.9375 C 25.5 -30.976562 27.375 -22.785156 31.125 -17.359375 C 34.882812 -11.941406 40.457031 -9.234375 47.84375 -9.234375 C 52.769531 -9.234375 57.539062 -10.3125 62.15625 -12.46875 C 66.78125 -14.625 70.878906 -17.703125 74.453125 -21.703125 C 78.023438 -25.710938 80.734375 -30.363281 82.578125 -35.65625 L 82.578125 -96.25 L 95.140625 -96.25 L 95.140625 -15.15625 C 95.140625 -13.425781 95.507812 -12.160156 96.25 -11.359375 C 96.988281 -10.554688 98.097656 -10.09375 99.578125 -9.96875 L 99.578125 0 C 98.097656 0.125 96.925781 0.21875 96.0625 0.28125 C 95.207031 0.34375 94.410156 0.375 93.671875 0.375 C 91.203125 0.125 89.070312 -0.859375 87.28125 -2.578125 C 85.5 -4.304688 84.550781 -6.40625 84.4375 -8.875 L 84.0625 -21.796875 C 79.875 -14.410156 74.175781 -8.625 66.96875 -4.4375 C 59.757812 -0.25 51.96875 1.84375 43.59375 1.84375 C 33.5 1.84375 25.863281 -1.664062 20.6875 -8.6875 C 15.519531 -15.707031 12.9375 -26.050781 12.9375 -39.71875 Z M 12.9375 -39.71875 "/></g></g></g><g fill="#ffde59" fill-opacity="1"><g transform="translate(650.896989, 177.750003)"><g><path d="M 45.453125 1.84375 C 37.566406 1.84375 30.234375 0.550781 23.453125 -2.03125 C 16.679688 -4.613281 10.832031 -8.554688 5.90625 -13.859375 L 11.078125 -22.71875 C 16.503906 -17.675781 21.957031 -14.015625 27.4375 -11.734375 C 32.914062 -9.453125 38.734375 -8.3125 44.890625 -8.3125 C 52.398438 -8.3125 58.492188 -9.816406 63.171875 -12.828125 C 67.859375 -15.847656 70.203125 -20.191406 70.203125 -25.859375 C 70.203125 -29.679688 69.0625 -32.609375 66.78125 -34.640625 C 64.507812 -36.671875 61.25 -38.332031 57 -39.625 C 52.75 -40.914062 47.664062 -42.300781 41.75 -43.78125 C 35.101562 -45.632812 29.53125 -47.578125 25.03125 -49.609375 C 20.539062 -51.640625 17.15625 -54.222656 14.875 -57.359375 C 12.59375 -60.503906 11.453125 -64.601562 11.453125 -69.65625 C 11.453125 -75.9375 13.019531 -81.140625 16.15625 -85.265625 C 19.300781 -89.390625 23.613281 -92.53125 29.09375 -94.6875 C 34.570312 -96.84375 40.703125 -97.921875 47.484375 -97.921875 C 54.867188 -97.921875 61.394531 -96.75 67.0625 -94.40625 C 72.726562 -92.0625 77.347656 -88.796875 80.921875 -84.609375 L 74.828125 -76.109375 C 71.378906 -80.054688 67.28125 -82.984375 62.53125 -84.890625 C 57.789062 -86.796875 52.523438 -87.75 46.734375 -87.75 C 42.796875 -87.75 39.039062 -87.222656 35.46875 -86.171875 C 31.894531 -85.128906 28.96875 -83.40625 26.6875 -81 C 24.414062 -78.601562 23.28125 -75.3125 23.28125 -71.125 C 23.28125 -67.675781 24.140625 -65 25.859375 -63.09375 C 27.585938 -61.1875 30.175781 -59.582031 33.625 -58.28125 C 37.070312 -56.988281 41.320312 -55.601562 46.375 -54.125 C 53.632812 -52.15625 59.972656 -50.15625 65.390625 -48.125 C 70.816406 -46.09375 75.007812 -43.472656 77.96875 -40.265625 C 80.925781 -37.066406 82.40625 -32.570312 82.40625 -26.78125 C 82.40625 -17.789062 79.015625 -10.769531 72.234375 -5.71875 C 65.460938 -0.675781 56.535156 1.84375 45.453125 1.84375 Z M 45.453125 1.84375 "/></g></g></g><g fill="#ffde59" fill-opacity="1"><g transform="translate(740.129361, 177.750003)"><g/></g></g><g fill="#ffde59" fill-opacity="1"><g transform="translate(787.239604, 177.750003)"><g><path d="M 15.890625 -131.171875 L 62.8125 -16.078125 L 109.5625 -131.171875 L 123.046875 -131.171875 L 68.734375 0 L 56.90625 0 L 2.40625 -131.171875 Z M 15.890625 -131.171875 "/></g></g></g><g fill="#ffde59" fill-opacity="1"><g transform="translate(912.68218, 177.750003)"><g><path d="M 54.875 1.84375 C 47.976562 1.84375 41.601562 0.519531 35.75 -2.125 C 29.894531 -4.769531 24.84375 -8.398438 20.59375 -13.015625 C 16.34375 -17.640625 13.046875 -22.9375 10.703125 -28.90625 C 8.367188 -34.882812 7.203125 -41.195312 7.203125 -47.84375 C 7.203125 -54.75 8.367188 -61.1875 10.703125 -67.15625 C 13.046875 -73.125 16.375 -78.414062 20.6875 -83.03125 C 25 -87.65625 30.078125 -91.289062 35.921875 -93.9375 C 41.773438 -96.59375 48.15625 -97.921875 55.0625 -97.921875 C 61.957031 -97.921875 68.296875 -96.59375 74.078125 -93.9375 C 79.867188 -91.289062 84.921875 -87.65625 89.234375 -83.03125 C 93.546875 -78.414062 96.867188 -73.125 99.203125 -67.15625 C 101.546875 -61.1875 102.71875 -54.75 102.71875 -47.84375 C 102.71875 -41.195312 101.546875 -34.882812 99.203125 -28.90625 C 96.867188 -22.9375 93.578125 -17.640625 89.328125 -13.015625 C 85.078125 -8.398438 80.023438 -4.769531 74.171875 -2.125 C 68.328125 0.519531 61.894531 1.84375 54.875 1.84375 Z M 19.953125 -47.671875 C 19.953125 -40.523438 21.519531 -34.023438 24.65625 -28.171875 C 27.800781 -22.328125 32.019531 -17.707031 37.3125 -14.3125 C 42.613281 -10.925781 48.46875 -9.234375 54.875 -9.234375 C 61.28125 -9.234375 67.128906 -10.957031 72.421875 -14.40625 C 77.710938 -17.851562 81.957031 -22.5625 85.15625 -28.53125 C 88.363281 -34.507812 89.96875 -41.007812 89.96875 -48.03125 C 89.96875 -55.175781 88.363281 -61.703125 85.15625 -67.609375 C 81.957031 -73.523438 77.710938 -78.207031 72.421875 -81.65625 C 67.128906 -85.101562 61.28125 -86.828125 54.875 -86.828125 C 48.46875 -86.828125 42.644531 -85.039062 37.40625 -81.46875 C 32.175781 -77.894531 27.957031 -73.179688 24.75 -67.328125 C 21.550781 -61.484375 19.953125 -54.929688 19.953125 -47.671875 Z M 19.953125 -47.671875 "/></g></g></g><g fill="#ffde59" fill-opacity="1"><g transform="translate(1022.606065, 177.750003)"><g><path d="M 14.40625 -134.875 L 26.96875 -134.875 L 26.96875 -21.796875 C 26.96875 -16.992188 27.828125 -13.851562 29.546875 -12.375 C 31.273438 -10.894531 33.375 -10.15625 35.84375 -10.15625 C 38.0625 -10.15625 40.273438 -10.398438 42.484375 -10.890625 C 44.703125 -11.390625 46.613281 -11.882812 48.21875 -12.375 L 50.4375 -2.21875 C 48.09375 -1.226562 45.226562 -0.425781 41.84375 0.1875 C 38.457031 0.800781 35.53125 1.109375 33.0625 1.109375 C 27.40625 1.109375 22.878906 -0.550781 19.484375 -3.875 C 16.097656 -7.207031 14.40625 -11.765625 14.40625 -17.546875 Z M 14.40625 -134.875 "/></g></g></g><g fill="#ffde59" fill-opacity="1"><g transform="translate(1072.856979, 177.750003)"><g><path d="M 82.578125 0 L 46.921875 -49.328125 L 26.421875 -30.109375 L 26.421875 0 L 13.859375 0 L 13.859375 -134.875 L 26.421875 -134.875 L 26.421875 -43.59375 L 80.921875 -96.0625 L 94.78125 -96.0625 L 55.421875 -56.71875 L 96.25 0 Z M 82.578125 0 "/></g></g></g><g fill="#ffde59" fill-opacity="1"><g transform="translate(1170.77235, 177.750003)"><g><path d="M 54.875 1.84375 C 47.976562 1.84375 41.601562 0.519531 35.75 -2.125 C 29.894531 -4.769531 24.84375 -8.398438 20.59375 -13.015625 C 16.34375 -17.640625 13.046875 -22.9375 10.703125 -28.90625 C 8.367188 -34.882812 7.203125 -41.195312 7.203125 -47.84375 C 7.203125 -54.75 8.367188 -61.1875 10.703125 -67.15625 C 13.046875 -73.125 16.375 -78.414062 20.6875 -83.03125 C 25 -87.65625 30.078125 -91.289062 35.921875 -93.9375 C 41.773438 -96.59375 48.15625 -97.921875 55.0625 -97.921875 C 61.957031 -97.921875 68.296875 -96.59375 74.078125 -93.9375 C 79.867188 -91.289062 84.921875 -87.65625 89.234375 -83.03125 C 93.546875 -78.414062 96.867188 -73.125 99.203125 -67.15625 C 101.546875 -61.1875 102.71875 -54.75 102.71875 -47.84375 C 102.71875 -41.195312 101.546875 -34.882812 99.203125 -28.90625 C 96.867188 -22.9375 93.578125 -17.640625 89.328125 -13.015625 C 85.078125 -8.398438 80.023438 -4.769531 74.171875 -2.125 C 68.328125 0.519531 61.894531 1.84375 54.875 1.84375 Z M 19.953125 -47.671875 C 19.953125 -40.523438 21.519531 -34.023438 24.65625 -28.171875 C 27.800781 -22.328125 32.019531 -17.707031 37.3125 -14.3125 C 42.613281 -10.925781 48.46875 -9.234375 54.875 -9.234375 C 61.28125 -9.234375 67.128906 -10.957031 72.421875 -14.40625 C 77.710938 -17.851562 81.957031 -22.5625 85.15625 -28.53125 C 88.363281 -34.507812 89.96875 -41.007812 89.96875 -48.03125 C 89.96875 -55.175781 88.363281 -61.703125 85.15625 -67.609375 C 81.957031 -73.523438 77.710938 -78.207031 72.421875 -81.65625 C 67.128906 -85.101562 61.28125 -86.828125 54.875 -86.828125 C 48.46875 -86.828125 42.644531 -85.039062 37.40625 -81.46875 C 32.175781 -77.894531 27.957031 -73.179688 24.75 -67.328125 C 21.550781 -61.484375 19.953125 -54.929688 19.953125 -47.671875 Z M 19.953125 -47.671875 "/></g></g></g><g fill="#ffde59" fill-opacity="1"><g transform="translate(1280.696234, 177.750003)"><g><path d="M 42.5 0 L 3.515625 -96.25 L 16.625 -96.25 L 49.515625 -12.5625 L 82.578125 -96.25 L 94.96875 -96.25 L 55.984375 0 Z M 42.5 0 "/></g></g></g></svg>