<svg xmlns="http://www.w3.org/2000/svg" xmlns:xlink="http://www.w3.org/1999/xlink" width="400" zoomAndPan="magnify" viewBox="0 0 300 74.999997" height="100" preserveAspectRatio="xMidYMid meet" version="1.0"><defs><g/></defs><g fill="#ffffff" fill-opacity="1"><g transform="translate(16.699223, 52.27155)"><g><path d="M 3.296875 0 L 3.296875 -26.265625 L 14.390625 -26.265625 C 15.523438 -26.265625 16.5625 -26.03125 17.5 -25.5625 C 18.4375 -25.09375 19.253906 -24.457031 19.953125 -23.65625 C 20.660156 -22.851562 21.203125 -21.960938 21.578125 -20.984375 C 21.960938 -20.015625 22.15625 -19.023438 22.15625 -18.015625 C 22.15625 -16.753906 21.914062 -15.566406 21.4375 -14.453125 C 20.957031 -13.347656 20.28125 -12.414062 19.40625 -11.65625 C 18.53125 -10.894531 17.5 -10.390625 16.3125 -10.140625 L 22.75 0 L 19.828125 0 L 13.65625 -9.6875 L 5.890625 -9.6875 L 5.890625 0 Z M 5.890625 -11.984375 L 14.46875 -11.984375 C 15.5 -11.984375 16.394531 -12.265625 17.15625 -12.828125 C 17.925781 -13.398438 18.519531 -14.148438 18.9375 -15.078125 C 19.363281 -16.003906 19.578125 -16.984375 19.578125 -18.015625 C 19.578125 -19.078125 19.332031 -20.054688 18.84375 -20.953125 C 18.363281 -21.859375 17.722656 -22.585938 16.921875 -23.140625 C 16.117188 -23.691406 15.226562 -23.96875 14.25 -23.96875 L 5.890625 -23.96875 Z M 5.890625 -11.984375 "/></g></g></g><g fill="#ffffff" fill-opacity="1"><g transform="translate(40.857654, 52.27155)"><g><path d="M 1.21875 -5.546875 C 1.21875 -6.753906 1.5625 -7.796875 2.25 -8.671875 C 2.945312 -9.546875 3.90625 -10.222656 5.125 -10.703125 C 6.34375 -11.191406 7.753906 -11.4375 9.359375 -11.4375 C 10.296875 -11.4375 11.269531 -11.359375 12.28125 -11.203125 C 13.289062 -11.054688 14.191406 -10.835938 14.984375 -10.546875 L 14.984375 -12.171875 C 14.984375 -13.796875 14.5 -15.085938 13.53125 -16.046875 C 12.570312 -17.015625 11.242188 -17.5 9.546875 -17.5 C 8.503906 -17.5 7.484375 -17.304688 6.484375 -16.921875 C 5.492188 -16.546875 4.453125 -15.988281 3.359375 -15.25 L 2.40625 -17.015625 C 3.664062 -17.878906 4.898438 -18.523438 6.109375 -18.953125 C 7.316406 -19.390625 8.550781 -19.609375 9.8125 -19.609375 C 12.175781 -19.609375 14.046875 -18.929688 15.421875 -17.578125 C 16.804688 -16.222656 17.5 -14.347656 17.5 -11.953125 L 17.5 -3.03125 C 17.5 -2.6875 17.570312 -2.429688 17.71875 -2.265625 C 17.863281 -2.109375 18.097656 -2.019531 18.421875 -2 L 18.421875 0 C 18.148438 0.0195312 17.914062 0.0390625 17.71875 0.0625 C 17.519531 0.09375 17.375 0.0976562 17.28125 0.078125 C 16.664062 0.046875 16.195312 -0.148438 15.875 -0.515625 C 15.550781 -0.890625 15.378906 -1.285156 15.359375 -1.703125 L 15.3125 -3.109375 C 14.445312 -1.992188 13.320312 -1.132812 11.9375 -0.53125 C 10.5625 0.0703125 9.160156 0.375 7.734375 0.375 C 6.503906 0.375 5.390625 0.109375 4.390625 -0.421875 C 3.390625 -0.953125 2.609375 -1.664062 2.046875 -2.5625 C 1.492188 -3.46875 1.21875 -4.460938 1.21875 -5.546875 Z M 14.140625 -4.0625 C 14.410156 -4.414062 14.617188 -4.75 14.765625 -5.0625 C 14.910156 -5.382812 14.984375 -5.671875 14.984375 -5.921875 L 14.984375 -8.734375 C 14.148438 -9.054688 13.28125 -9.300781 12.375 -9.46875 C 11.476562 -9.644531 10.570312 -9.734375 9.65625 -9.734375 C 7.851562 -9.734375 6.394531 -9.375 5.28125 -8.65625 C 4.175781 -7.9375 3.625 -6.960938 3.625 -5.734375 C 3.625 -5.015625 3.804688 -4.34375 4.171875 -3.71875 C 4.546875 -3.09375 5.085938 -2.570312 5.796875 -2.15625 C 6.515625 -1.75 7.359375 -1.546875 8.328125 -1.546875 C 9.535156 -1.546875 10.660156 -1.78125 11.703125 -2.25 C 12.753906 -2.71875 13.566406 -3.320312 14.140625 -4.0625 Z M 14.140625 -4.0625 "/></g></g></g><g fill="#ffffff" fill-opacity="1"><g transform="translate(61.020505, 52.27155)"><g><path d="M 9.109375 0.375 C 7.523438 0.375 6.050781 0.113281 4.6875 -0.40625 C 3.332031 -0.925781 2.164062 -1.71875 1.1875 -2.78125 L 2.21875 -4.546875 C 3.300781 -3.535156 4.390625 -2.800781 5.484375 -2.34375 C 6.585938 -1.894531 7.753906 -1.671875 8.984375 -1.671875 C 10.492188 -1.671875 11.71875 -1.972656 12.65625 -2.578125 C 13.59375 -3.179688 14.0625 -4.050781 14.0625 -5.1875 C 14.0625 -5.945312 13.832031 -6.53125 13.375 -6.9375 C 12.914062 -7.34375 12.257812 -7.675781 11.40625 -7.9375 C 10.5625 -8.195312 9.546875 -8.472656 8.359375 -8.765625 C 7.023438 -9.140625 5.90625 -9.53125 5 -9.9375 C 4.101562 -10.34375 3.425781 -10.859375 2.96875 -11.484375 C 2.519531 -12.117188 2.296875 -12.941406 2.296875 -13.953125 C 2.296875 -15.210938 2.609375 -16.253906 3.234375 -17.078125 C 3.867188 -17.898438 4.734375 -18.523438 5.828125 -18.953125 C 6.921875 -19.390625 8.148438 -19.609375 9.515625 -19.609375 C 10.992188 -19.609375 12.300781 -19.375 13.4375 -18.90625 C 14.570312 -18.4375 15.492188 -17.785156 16.203125 -16.953125 L 14.984375 -15.25 C 14.296875 -16.03125 13.472656 -16.613281 12.515625 -17 C 11.566406 -17.382812 10.515625 -17.578125 9.359375 -17.578125 C 8.566406 -17.578125 7.8125 -17.472656 7.09375 -17.265625 C 6.382812 -17.054688 5.800781 -16.707031 5.34375 -16.21875 C 4.882812 -15.738281 4.65625 -15.082031 4.65625 -14.25 C 4.65625 -13.550781 4.828125 -13.007812 5.171875 -12.625 C 5.523438 -12.25 6.046875 -11.929688 6.734375 -11.671875 C 7.421875 -11.410156 8.269531 -11.132812 9.28125 -10.84375 C 10.738281 -10.445312 12.007812 -10.046875 13.09375 -9.640625 C 14.175781 -9.234375 15.015625 -8.707031 15.609375 -8.0625 C 16.203125 -7.425781 16.5 -6.523438 16.5 -5.359375 C 16.5 -3.554688 15.820312 -2.148438 14.46875 -1.140625 C 13.113281 -0.128906 11.328125 0.375 9.109375 0.375 Z M 9.109375 0.375 "/></g></g></g><g fill="#ffffff" fill-opacity="1"><g transform="translate(78.889606, 52.27155)"><g><path d="M 31.453125 0 L 28.9375 0 L 28.9375 -10.765625 C 28.9375 -13.015625 28.578125 -14.664062 27.859375 -15.71875 C 27.140625 -16.78125 26.078125 -17.3125 24.671875 -17.3125 C 23.222656 -17.3125 21.925781 -16.789062 20.78125 -15.75 C 19.632812 -14.71875 18.828125 -13.390625 18.359375 -11.765625 L 18.359375 0 L 15.84375 0 L 15.84375 -10.765625 C 15.84375 -13.035156 15.492188 -14.691406 14.796875 -15.734375 C 14.109375 -16.785156 13.050781 -17.3125 11.625 -17.3125 C 10.1875 -17.3125 8.890625 -16.804688 7.734375 -15.796875 C 6.578125 -14.785156 5.765625 -13.453125 5.296875 -11.796875 L 5.296875 0 L 2.78125 0 L 2.78125 -19.28125 L 5.0625 -19.28125 L 5.0625 -14.90625 C 5.882812 -16.414062 6.925781 -17.578125 8.1875 -18.390625 C 9.457031 -19.203125 10.875 -19.609375 12.4375 -19.609375 C 14.039062 -19.609375 15.332031 -19.148438 16.3125 -18.234375 C 17.300781 -17.328125 17.90625 -16.132812 18.125 -14.65625 C 19.019531 -16.28125 20.085938 -17.507812 21.328125 -18.34375 C 22.578125 -19.1875 23.988281 -19.609375 25.5625 -19.609375 C 26.644531 -19.609375 27.5625 -19.410156 28.3125 -19.015625 C 29.070312 -18.617188 29.679688 -18.054688 30.140625 -17.328125 C 30.597656 -16.609375 30.929688 -15.734375 31.140625 -14.703125 C 31.347656 -13.679688 31.453125 -12.539062 31.453125 -11.28125 Z M 31.453125 0 "/></g></g></g><g fill="#ffffff" fill-opacity="1"><g transform="translate(112.888993, 52.27155)"><g><path d="M 2.59375 -7.953125 L 2.59375 -19.28125 L 5.109375 -19.28125 L 5.109375 -8.40625 C 5.109375 -6.207031 5.484375 -4.5625 6.234375 -3.46875 C 6.984375 -2.382812 8.097656 -1.84375 9.578125 -1.84375 C 10.566406 -1.84375 11.523438 -2.054688 12.453125 -2.484375 C 13.378906 -2.921875 14.195312 -3.539062 14.90625 -4.34375 C 15.625 -5.144531 16.164062 -6.078125 16.53125 -7.140625 L 16.53125 -19.28125 L 19.0625 -19.28125 L 19.0625 -3.03125 C 19.0625 -2.6875 19.132812 -2.429688 19.28125 -2.265625 C 19.425781 -2.109375 19.644531 -2.019531 19.9375 -2 L 19.9375 0 C 19.644531 0.0195312 19.410156 0.0351562 19.234375 0.046875 C 19.066406 0.0664062 18.910156 0.078125 18.765625 0.078125 C 18.265625 0.0234375 17.835938 -0.171875 17.484375 -0.515625 C 17.128906 -0.859375 16.9375 -1.28125 16.90625 -1.78125 L 16.828125 -4.359375 C 15.992188 -2.878906 14.851562 -1.71875 13.40625 -0.875 C 11.96875 -0.0390625 10.410156 0.375 8.734375 0.375 C 6.710938 0.375 5.179688 -0.328125 4.140625 -1.734375 C 3.109375 -3.140625 2.59375 -5.210938 2.59375 -7.953125 Z M 2.59375 -7.953125 "/></g></g></g><g fill="#ffffff" fill-opacity="1"><g transform="translate(134.864657, 52.27155)"><g><path d="M 9.109375 0.375 C 7.523438 0.375 6.050781 0.113281 4.6875 -0.40625 C 3.332031 -0.925781 2.164062 -1.71875 1.1875 -2.78125 L 2.21875 -4.546875 C 3.300781 -3.535156 4.390625 -2.800781 5.484375 -2.34375 C 6.585938 -1.894531 7.753906 -1.671875 8.984375 -1.671875 C 10.492188 -1.671875 11.71875 -1.972656 12.65625 -2.578125 C 13.59375 -3.179688 14.0625 -4.050781 14.0625 -5.1875 C 14.0625 -5.945312 13.832031 -6.53125 13.375 -6.9375 C 12.914062 -7.34375 12.257812 -7.675781 11.40625 -7.9375 C 10.5625 -8.195312 9.546875 -8.472656 8.359375 -8.765625 C 7.023438 -9.140625 5.90625 -9.53125 5 -9.9375 C 4.101562 -10.34375 3.425781 -10.859375 2.96875 -11.484375 C 2.519531 -12.117188 2.296875 -12.941406 2.296875 -13.953125 C 2.296875 -15.210938 2.609375 -16.253906 3.234375 -17.078125 C 3.867188 -17.898438 4.734375 -18.523438 5.828125 -18.953125 C 6.921875 -19.390625 8.148438 -19.609375 9.515625 -19.609375 C 10.992188 -19.609375 12.300781 -19.375 13.4375 -18.90625 C 14.570312 -18.4375 15.492188 -17.785156 16.203125 -16.953125 L 14.984375 -15.25 C 14.296875 -16.03125 13.472656 -16.613281 12.515625 -17 C 11.566406 -17.382812 10.515625 -17.578125 9.359375 -17.578125 C 8.566406 -17.578125 7.8125 -17.472656 7.09375 -17.265625 C 6.382812 -17.054688 5.800781 -16.707031 5.34375 -16.21875 C 4.882812 -15.738281 4.65625 -15.082031 4.65625 -14.25 C 4.65625 -13.550781 4.828125 -13.007812 5.171875 -12.625 C 5.523438 -12.25 6.046875 -11.929688 6.734375 -11.671875 C 7.421875 -11.410156 8.269531 -11.132812 9.28125 -10.84375 C 10.738281 -10.445312 12.007812 -10.046875 13.09375 -9.640625 C 14.175781 -9.234375 15.015625 -8.707031 15.609375 -8.0625 C 16.203125 -7.425781 16.5 -6.523438 16.5 -5.359375 C 16.5 -3.554688 15.820312 -2.148438 14.46875 -1.140625 C 13.113281 -0.128906 11.328125 0.375 9.109375 0.375 Z M 9.109375 0.375 "/></g></g></g><g fill="#ffffff" fill-opacity="1"><g transform="translate(152.733759, 52.27155)"><g/></g></g><g fill="#ffffff" fill-opacity="1"><g transform="translate(162.167752, 52.27155)"><g><path d="M 3.1875 -26.265625 L 12.578125 -3.21875 L 21.9375 -26.265625 L 24.640625 -26.265625 L 13.765625 0 L 11.390625 0 L 0.484375 -26.265625 Z M 3.1875 -26.265625 "/></g></g></g><g fill="#ffffff" fill-opacity="1"><g transform="translate(187.288081, 52.27155)"><g><path d="M 10.984375 0.375 C 9.609375 0.375 8.332031 0.109375 7.15625 -0.421875 C 5.988281 -0.953125 4.976562 -1.679688 4.125 -2.609375 C 3.269531 -3.535156 2.609375 -4.59375 2.140625 -5.78125 C 1.671875 -6.976562 1.4375 -8.242188 1.4375 -9.578125 C 1.4375 -10.960938 1.671875 -12.253906 2.140625 -13.453125 C 2.609375 -14.648438 3.273438 -15.707031 4.140625 -16.625 C 5.003906 -17.550781 6.019531 -18.28125 7.1875 -18.8125 C 8.363281 -19.34375 9.644531 -19.609375 11.03125 -19.609375 C 12.40625 -19.609375 13.671875 -19.34375 14.828125 -18.8125 C 15.992188 -18.28125 17.007812 -17.550781 17.875 -16.625 C 18.738281 -15.707031 19.40625 -14.648438 19.875 -13.453125 C 20.34375 -12.253906 20.578125 -10.960938 20.578125 -9.578125 C 20.578125 -8.242188 20.34375 -6.976562 19.875 -5.78125 C 19.40625 -4.59375 18.742188 -3.535156 17.890625 -2.609375 C 17.035156 -1.679688 16.019531 -0.953125 14.84375 -0.421875 C 13.675781 0.109375 12.390625 0.375 10.984375 0.375 Z M 4 -9.546875 C 4 -8.117188 4.3125 -6.816406 4.9375 -5.640625 C 5.570312 -4.472656 6.414062 -3.546875 7.46875 -2.859375 C 8.53125 -2.179688 9.703125 -1.84375 10.984375 -1.84375 C 12.265625 -1.84375 13.4375 -2.1875 14.5 -2.875 C 15.5625 -3.570312 16.410156 -4.519531 17.046875 -5.71875 C 17.691406 -6.914062 18.015625 -8.21875 18.015625 -9.625 C 18.015625 -11.050781 17.691406 -12.351562 17.046875 -13.53125 C 16.410156 -14.71875 15.5625 -15.65625 14.5 -16.34375 C 13.4375 -17.039062 12.265625 -17.390625 10.984375 -17.390625 C 9.703125 -17.390625 8.535156 -17.03125 7.484375 -16.3125 C 6.441406 -15.601562 5.597656 -14.660156 4.953125 -13.484375 C 4.316406 -12.316406 4 -11.003906 4 -9.546875 Z M 4 -9.546875 "/></g></g></g><g fill="#ffffff" fill-opacity="1"><g transform="translate(209.300755, 52.27155)"><g><path d="M 2.890625 -27.015625 L 5.40625 -27.015625 L 5.40625 -4.359375 C 5.40625 -3.398438 5.578125 -2.769531 5.921875 -2.46875 C 6.265625 -2.175781 6.679688 -2.03125 7.171875 -2.03125 C 7.617188 -2.03125 8.0625 -2.078125 8.5 -2.171875 C 8.945312 -2.273438 9.332031 -2.378906 9.65625 -2.484375 L 10.09375 -0.4375 C 9.625 -0.238281 9.050781 -0.0820312 8.375 0.03125 C 7.695312 0.15625 7.113281 0.21875 6.625 0.21875 C 5.488281 0.21875 4.582031 -0.113281 3.90625 -0.78125 C 3.226562 -1.445312 2.890625 -2.359375 2.890625 -3.515625 Z M 2.890625 -27.015625 "/></g></g></g><g fill="#ffffff" fill-opacity="1"><g transform="translate(219.363681, 52.27155)"><g><path d="M 16.53125 0 L 9.390625 -9.875 L 5.296875 -6.03125 L 5.296875 0 L 2.78125 0 L 2.78125 -27.015625 L 5.296875 -27.015625 L 5.296875 -8.734375 L 16.203125 -19.234375 L 18.984375 -19.234375 L 11.09375 -11.359375 L 19.28125 0 Z M 16.53125 0 "/></g></g></g><g fill="#ffffff" fill-opacity="1"><g transform="translate(238.971597, 52.27155)"><g><path d="M 10.984375 0.375 C 9.609375 0.375 8.332031 0.109375 7.15625 -0.421875 C 5.988281 -0.953125 4.976562 -1.679688 4.125 -2.609375 C 3.269531 -3.535156 2.609375 -4.59375 2.140625 -5.78125 C 1.671875 -6.976562 1.4375 -8.242188 1.4375 -9.578125 C 1.4375 -10.960938 1.671875 -12.253906 2.140625 -13.453125 C 2.609375 -14.648438 3.273438 -15.707031 4.140625 -16.625 C 5.003906 -17.550781 6.019531 -18.28125 7.1875 -18.8125 C 8.363281 -19.34375 9.644531 -19.609375 11.03125 -19.609375 C 12.40625 -19.609375 13.671875 -19.34375 14.828125 -18.8125 C 15.992188 -18.28125 17.007812 -17.550781 17.875 -16.625 C 18.738281 -15.707031 19.40625 -14.648438 19.875 -13.453125 C 20.34375 -12.253906 20.578125 -10.960938 20.578125 -9.578125 C 20.578125 -8.242188 20.34375 -6.976562 19.875 -5.78125 C 19.40625 -4.59375 18.742188 -3.535156 17.890625 -2.609375 C 17.035156 -1.679688 16.019531 -0.953125 14.84375 -0.421875 C 13.675781 0.109375 12.390625 0.375 10.984375 0.375 Z M 4 -9.546875 C 4 -8.117188 4.3125 -6.816406 4.9375 -5.640625 C 5.570312 -4.472656 6.414062 -3.546875 7.46875 -2.859375 C 8.53125 -2.179688 9.703125 -1.84375 10.984375 -1.84375 C 12.265625 -1.84375 13.4375 -2.1875 14.5 -2.875 C 15.5625 -3.570312 16.410156 -4.519531 17.046875 -5.71875 C 17.691406 -6.914062 18.015625 -8.21875 18.015625 -9.625 C 18.015625 -11.050781 17.691406 -12.351562 17.046875 -13.53125 C 16.410156 -14.71875 15.5625 -15.65625 14.5 -16.34375 C 13.4375 -17.039062 12.265625 -17.390625 10.984375 -17.390625 C 9.703125 -17.390625 8.535156 -17.03125 7.484375 -16.3125 C 6.441406 -15.601562 5.597656 -14.660156 4.953125 -13.484375 C 4.316406 -12.316406 4 -11.003906 4 -9.546875 Z M 4 -9.546875 "/></g></g></g><g fill="#ffffff" fill-opacity="1"><g transform="translate(260.98426, 52.27155)"><g><path d="M 8.515625 0 L 0.703125 -19.28125 L 3.328125 -19.28125 L 9.921875 -2.515625 L 16.53125 -19.28125 L 19.015625 -19.28125 L 11.21875 0 Z M 8.515625 0 "/></g></g></g></svg>